<svg xmlns="http://www.w3.org/2000/svg" xml:space="preserve" viewBox="0 0 273.83 74.52"><path d="m48.2 47.4 3.9-.1V67H0v-3.4L32.4 2.7a207.492 207.492 0 0 0-14.537 5.773A266.295 266.295 0 0 0 5.9 14.1l-.2 5-3.9.1V0h49v4.4L19 64.4a223.152 223.152 0 0 0 19.766-7.691A263.472 263.472 0 0 0 48 52.4l.2-5Z" vector-effect="non-scaling-stroke" transform="translate(0 6.782)" xmlns="http://www.w3.org/2000/svg" stroke-linecap="round" fill-rule="evenodd" font-size="12" stroke="#000" stroke-width=".945" fill="none" style="stroke:none;fill:#000"/><path d="m40.801 31.867-1.867 3.866q-1.571 3.021-4.894 5.714a28.088 28.088 0 0 1-.706.553q-1.6 1.2-4.4 2.533-2.8 1.334-7.866 1.334a24.347 24.347 0 0 1-6.508-.822 17.46 17.46 0 0 1-8.826-5.578 11.152 11.152 0 0 1-2.533-3.4q-.933-1.934-1.733-3.934Q.143 28.641.015 23.951a37.272 37.272 0 0 1-.014-1.018q0-9.451 4.735-15.269a18.978 18.978 0 0 1 .998-1.131 24.276 24.276 0 0 1 4.286-3.586 21.421 21.421 0 0 1 2.114-1.214A22.503 22.503 0 0 1 19.23.072 26.778 26.778 0 0 1 21.201 0a29.667 29.667 0 0 1 2.875.13q1.421.139 2.605.426a11.566 11.566 0 0 1 2.253.777 28.489 28.489 0 0 1 5.761 3.614 33.887 33.887 0 0 1 1.839 1.586A44.818 44.818 0 0 1 40.801 14q1.312 4.413 1.45 8.079a22.647 22.647 0 0 1 .017.854q0 4.267-1.467 8.934Zm-5.867-8.934h-.266q0-8.933-3.467-13.6a30.599 30.599 0 0 0-1.138-1.525 24.851 24.851 0 0 0-.729-.875 6.561 6.561 0 0 0-1.576-1.302 8.157 8.157 0 0 0-.824-.431q-2.133-1.733-5.733-1.733-3.6 0-6.133 1.733-6.032 2.885-7.68 13.507a42.559 42.559 0 0 0-.054.36 26.367 26.367 0 0 0-.266 3.733 27.649 27.649 0 0 0 1.422 8.965 25.211 25.211 0 0 0 2.044 4.502 11.746 11.746 0 0 0 1.832 2.265q.93.909 2.132 1.75a21.225 21.225 0 0 0 .57.385 13.326 13.326 0 0 0 2.552.979 10.335 10.335 0 0 0 2.648.354 20.239 20.239 0 0 0 3.295-.255q1.895-.313 3.482-1.009a12.608 12.608 0 0 0 .156-.069q3.067-2.134 4.533-4.667a24.112 24.112 0 0 0 2.888-8.582 31.175 31.175 0 0 0 .312-4.485Z" vector-effect="non-scaling-stroke" transform="translate(60.1 29.116)" xmlns="http://www.w3.org/2000/svg" stroke-linecap="round" fill-rule="evenodd" font-size="12" stroke="#000" stroke-width=".945" fill="none" style="stroke:none;fill:#000"/><path d="M14.16 0H0v72.803h9.131V40.479h4.248l6.885-.147a179.893 179.893 0 0 1 1.518 2.124q1.837 2.612 3.056 4.575a52.964 52.964 0 0 1 .382.625 675.851 675.851 0 0 0 .811 1.346q1.108 1.832 1.745 2.852a94.511 94.511 0 0 0 .032.05q.854 1.367 2.05 3.662a735.014 735.014 0 0 0 .556 1.064q.688 1.314 1.068 2.024a78.994 78.994 0 0 0 .085.159 30.743 30.743 0 0 1 .292.558q.523 1.021 1.466 2.983a1178.785 1178.785 0 0 1 .434.901q.866 1.805 1.104 2.321.293.635 1.685 3.687 1.391 3.051 1.636 3.54h10.595a375.545 375.545 0 0 0-3.682-7.884q-2.059-4.271-4.001-7.978a202.835 202.835 0 0 0-1.741-3.254 113.353 113.353 0 0 0-10.156-15.406 25.375 25.375 0 0 0 6.135-2.154 20.027 20.027 0 0 0 5.608-4.218 16.028 16.028 0 0 0 3.849-7.442 23.695 23.695 0 0 0 .57-5.351 23.45 23.45 0 0 0-.462-4.808q-.962-4.593-3.932-7.448-4.395-4.223-11.06-5.542Q23.242 0 14.16 0Zm4.444 32.568H9.131V7.129h9.277a37.113 37.113 0 0 1 5.456.369q6.492.969 9.518 4.477a9.954 9.954 0 0 1 1.042 1.453 10.36 10.36 0 0 1 1.249 3.583 13.677 13.677 0 0 1 .167 2.178 18.615 18.615 0 0 1-.354 3.759q-.462 2.239-1.528 3.906a9.19 9.19 0 0 1-2.586 2.663 15.299 15.299 0 0 1-4.216 1.961q-3.591 1.09-8.552 1.09Z" vector-effect="non-scaling-stroke" transform="translate(110.368 .98)" xmlns="http://www.w3.org/2000/svg" stroke-linecap="round" fill-rule="evenodd" font-size="12" stroke="#000" stroke-width=".945" fill="none" style="stroke:none;fill:#000"/><path d="M17.529 72.803H0V0h14.307a90.724 90.724 0 0 1 7.449.283q7.199.596 11.614 2.449a15.372 15.372 0 0 1 3.422 1.932 15.165 15.165 0 0 1 5.972 11.006 22 22 0 0 1 .107 2.202 18.013 18.013 0 0 1-.489 4.316 12.582 12.582 0 0 1-3.027 5.693 17.625 17.625 0 0 1-5.327 3.842 24.203 24.203 0 0 1-4.194 1.529 20.905 20.905 0 0 1 7.901 2.787 19.956 19.956 0 0 1 4.111 3.341q4.785 5.054 4.785 12.281a21.44 21.44 0 0 1-2.176 9.981q-4.607 8.894-18.97 10.701a63.945 63.945 0 0 1-7.956.46Zm.977-34.912H9.131v27.783h7.861a54.925 54.925 0 0 0 5.321-.239q5.335-.521 8.684-2.177a13.494 13.494 0 0 0 1.107-.611q4.261-2.628 4.822-9.066a23.52 23.52 0 0 0 .086-2.042q0-4.567-1.544-7.442a8.495 8.495 0 0 0-3.29-3.423q-3.324-1.913-8.539-2.511a45.198 45.198 0 0 0-5.133-.272ZM9.131 30.03h7.178a51.443 51.443 0 0 0 4.419-.176q4.333-.375 6.992-1.553a9.392 9.392 0 0 0 1.87-1.079q3.711-2.807 3.711-7.641a20.546 20.546 0 0 0-.247-3.315q-.284-1.731-.894-3.068a7.298 7.298 0 0 0-2.814-3.285A13.505 13.505 0 0 0 26.099 8.4q-1.489-.478-3.232-.718a23.622 23.622 0 0 0-.504-.064 61.753 61.753 0 0 0-3.158-.278q-1.637-.105-3.52-.158a144.315 144.315 0 0 0-4.015-.053H9.131V30.03Z" vector-effect="non-scaling-stroke" transform="translate(167.147 .98)" xmlns="http://www.w3.org/2000/svg" stroke-linecap="round" fill-rule="evenodd" font-size="12" stroke="#000" stroke-width=".945" fill="none" style="stroke:none;fill:#000"/><path d="M7.815 70.364.002 73.782v-52.05A20.779 20.779 0 0 1 6.235 6.587a25.522 25.522 0 0 1 .213-.212A21.329 21.329 0 0 1 21.881.003a26.087 26.087 0 0 1 .143 0 21.333 21.333 0 0 1 15.475 6.273 25.509 25.509 0 0 1 .101.099q6.445 6.372 6.445 15.357v48.632l-7.812 3.418V40.823H7.815v29.541Zm0-48.779v11.426h28.418V21.585a13.636 13.636 0 0 0-4.071-9.832 16.362 16.362 0 0 0-.129-.129 14.055 14.055 0 0 0-5.675-3.504 14.284 14.284 0 0 0-4.334-.646 13.793 13.793 0 0 0-9.993 4.086 16.88 16.88 0 0 0-.066.064 13.785 13.785 0 0 0-3.349 5.105 13.65 13.65 0 0 0-.801 4.71v.146Z" vector-effect="non-scaling-stroke" transform="translate(221.785)" xmlns="http://www.w3.org/2000/svg" stroke-linecap="round" fill-rule="evenodd" font-size="12" stroke="#000" stroke-width=".945" fill="none" style="stroke:none;fill:#000"/></svg>